<svg width="745" height="745" viewBox="0 0 745 745" fill="none" xmlns="http://www.w3.org/2000/svg">
<path d="M482.711 356.405C483.965 348.215 484.631 339.822 484.701 331.248L465.232 311.777L481.634 295.375C480.343 287.986 478.674 280.606 476.59 273.259L451.659 298.202L400.807 247.347L444.358 203.807C440.813 198.422 437.043 193.132 433.087 187.929L387.228 233.773L333.12 179.666L379.759 133.033C374.735 128.894 369.665 124.885 364.527 121.11L319.545 166.09L267.613 114.156L297.775 83.9992C290.982 81.3544 284.211 79.0943 277.466 77.154L254.036 100.58L222.63 69.1748C214.089 69.2397 205.717 69.9318 197.56 71.2542L240.456 114.155L183.427 171.185L120.861 108.632C118.745 110.552 116.639 112.513 114.565 114.583C112.048 117.11 109.652 119.681 107.35 122.271L169.85 184.772L112.821 241.801L70.9226 199.893C69.6913 208.179 69.0502 216.623 69.1414 225.273L99.2397 255.367L77.102 277.504C79.0423 284.266 81.3256 291.048 83.9472 297.819L112.821 268.952L164.748 320.885L121.101 364.52C124.886 369.681 128.831 374.778 132.981 379.802L178.328 334.459L232.437 388.567L187.873 433.131C193.088 437.088 198.381 440.851 203.768 444.392L246.013 402.143L296.863 452.987L273.223 476.63C280.607 478.731 287.981 480.416 295.306 481.706L310.438 466.574L328.62 484.756C337.268 484.799 345.772 484.234 354.1 483.072L324.017 452.989L381.049 395.959L433.056 447.976C435.71 445.683 438.313 443.327 440.814 440.833C442.861 438.775 444.84 436.674 446.754 434.519L394.623 382.395L451.659 325.355L482.711 356.405ZM373.652 247.346L316.622 304.386L262.509 250.269L319.544 193.248L373.652 247.346ZM254.036 127.742L305.964 179.664L248.933 236.694L197.001 184.772L254.036 127.742ZM126.397 255.365L183.427 198.334L235.36 250.267L178.33 307.297L126.397 255.365ZM191.903 320.873L248.933 263.853L303.041 317.961L246.016 374.991L191.903 320.873ZM310.443 439.422L259.592 388.567L316.622 331.537L367.473 382.392L310.443 439.422ZM381.049 368.807L330.197 317.963L387.228 260.933L438.079 311.779L381.049 368.807Z" fill="white" fill-opacity="0.5"/>
<path d="M735.087 670.444C732.027 667.382 718.931 654.577 703.825 639.785C682.786 619.192 669.301 606.215 661.544 598.463C660.078 596.991 658.628 595.52 657.203 594.048C631.098 567.165 607.851 531.324 590.016 490.418C570.395 445.48 558.051 396.789 553.332 345.677L553.31 345.389L553.326 345.09C555.181 314.975 551.668 284.2 542.896 253.626C527.712 200.733 497.235 150.325 454.766 107.852C425.883 78.9633 394.377 55.2266 361.126 37.2677C336.099 23.7672 310.432 13.7766 284.826 7.55861C244.607 -2.18942 205.61 -2.50766 168.894 6.59771C130.588 16.0584 94.9555 36.4365 65.8582 65.5277L65.56 65.8274C39.2836 92.1022 20.6125 122.601 10.0504 156.479C2.47288 180.709 -0.843918 206.428 0.181864 232.939C1.66801 271.222 11.9799 310.166 30.8348 348.695C49.3422 386.519 75.2494 422.222 107.818 454.798C164.352 511.317 234.428 546.091 305.157 552.736C318.641 553.993 332.376 554.186 345.979 553.29H346.416C399.724 555.87 449.263 567.559 493.671 588.087C530.494 605.117 564.256 628.384 594.013 657.24C595.494 658.68 596.977 660.142 598.454 661.623C606.212 669.375 619.191 682.856 639.786 703.895C654.561 719.007 667.381 732.101 670.446 735.161C676.52 741.239 692.861 753.151 713.331 732.676L729.929 716.084L729.892 716.053L732.611 713.332C753.083 692.859 741.166 676.522 735.087 670.444ZM267.367 494.938C222.59 482.099 179.632 456.016 143.124 419.492C117.663 394.048 96.8263 366.44 81.1723 337.434C69.7049 316.192 61.253 294.544 56.0592 273.1C48.2268 240.777 47.8807 209.768 55.0241 180.944C62.5059 150.989 77.9729 124.096 100.98 101.03L100.987 101.019C121.541 80.5019 145.216 65.9355 171.347 57.7339C190.109 51.8804 210.172 49.3114 230.978 50.11C262.251 51.3058 294.459 59.9199 326.719 75.7036C359.584 91.784 390.787 114.467 419.467 143.163C467.827 191.501 497.489 250.697 502.991 309.838C505.604 337.777 502.766 364.446 494.572 389.123C486.259 414.067 472.737 436.044 454.379 454.418C436.005 472.771 414.039 486.282 389.078 494.611C351.851 506.988 309.766 507.105 267.367 494.938ZM569.018 573.2C551.679 561.683 533.375 551.437 514.623 542.765C497.209 534.704 478.808 527.74 459.939 522.067L452.246 519.753L458.884 515.211C469.99 507.629 480.339 499.066 489.724 489.681C499.929 479.476 509.267 467.939 517.476 455.387L521.97 448.529L524.371 456.379C530.043 474.997 536.74 493.168 544.259 510.391C553.131 530.685 563.278 550.06 574.411 567.976L569.018 573.2Z" fill="white" fill-opacity="0.5"/>
</svg>
